<?xml version="1.0" standalone="no"?>
<!DOCTYPE svg PUBLIC "-//W3C//DTD SVG 20010904//EN"
 "http://www.w3.org/TR/2001/REC-SVG-20010904/DTD/svg10.dtd">
<svg version="1.0" xmlns="http://www.w3.org/2000/svg"
 width="920.000000pt" height="906.000000pt" viewBox="0 0 920.000000 906.000000"
 preserveAspectRatio="xMidYMid meet">

<g transform="translate(0.000000,906.000000) scale(0.100000,-0.100000)"
fill="#000000" stroke="none">
<path d="M4230 9014 c-766 -56 -1406 -291 -1950 -717 -69 -54 -174 -137 -235
-185 -60 -47 -177 -152 -258 -232 -264 -257 -437 -487 -598 -795 -59 -112
-132 -275 -126 -281 2 -2 59 -20 128 -39 536 -156 947 -399 1203 -714 148
-182 282 -436 361 -688 6 -19 26 -16 101 12 191 72 337 213 478 462 51 91 154
311 221 473 24 58 71 170 105 250 34 80 78 190 96 245 43 124 136 316 202 415
184 277 453 483 816 625 131 51 108 61 233 -99 162 -209 366 -535 484 -774
l44 -90 55 -8 c101 -16 494 -10 620 9 265 40 477 107 720 228 227 113 419 246
595 413 l70 66 -165 162 c-585 575 -1279 969 -2028 1152 -157 39 -391 80 -547
96 -106 11 -532 21 -625 14z"/>
<path d="M7635 7428 c-133 -131 -412 -337 -580 -427 -230 -123 -480 -205 -770
-253 -96 -16 -587 -17 -682 -1 l-63 10 0 -72 c0 -186 69 -377 204 -560 48 -65
194 -245 216 -265 3 -3 37 -41 75 -85 39 -44 78 -89 88 -100 55 -60 271 -321
324 -390 235 -311 386 -649 438 -980 20 -127 29 -282 21 -358 l-7 -65 -62 -11
c-272 -50 -600 -68 -931 -51 -132 6 -244 14 -248 16 -11 7 -139 -178 -216
-313 -71 -125 -153 -312 -191 -438 -53 -171 -72 -301 -78 -515 -6 -228 6 -353
54 -558 l27 -114 45 7 c26 4 111 20 191 36 1090 220 1968 848 2488 1779 124
222 237 490 302 715 17 61 40 139 50 175 22 74 52 244 76 435 23 181 23 545 0
720 -82 611 -226 1025 -499 1435 -75 113 -205 281 -215 279 -4 -1 -29 -24 -57
-51z"/>
<path d="M1000 6586 c-252 -663 -286 -1432 -94 -2116 319 -1137 1205 -2109
2249 -2467 214 -73 582 -154 840 -185 155 -18 572 -15 745 6 132 16 283 39
336 51 l21 5 -22 94 c-57 234 -80 440 -72 651 15 389 123 673 442 1161 l93
142 -87 41 c-252 119 -514 166 -921 165 -333 0 -608 -31 -893 -99 -483 -117
-912 -72 -1342 140 -206 101 -193 87 -165 171 88 267 229 543 418 819 l75 110
-17 50 c-56 159 -232 462 -363 625 -87 108 -263 274 -373 352 -224 159 -532
277 -792 304 -67 7 -68 6 -78 -20z"/>
<path d="M4430 6095 c-158 -36 -283 -106 -390 -221 -127 -136 -188 -281 -197
-464 -19 -363 210 -673 559 -762 118 -30 300 -23 413 16 114 39 209 98 295
186 61 61 86 97 128 181 61 121 82 205 82 337 0 223 -92 423 -265 571 -68 58
-191 123 -280 146 -85 23 -264 28 -345 10z"/>
<path d="M2440 1474 c-176 -47 -312 -192 -356 -380 -22 -95 -15 -265 15 -354
31 -91 102 -192 169 -240 83 -60 151 -82 267 -87 173 -8 293 33 397 138 108
108 155 253 145 448 -13 248 -140 420 -352 476 -74 19 -212 18 -285 -1z m203
-185 c125 -34 208 -227 179 -415 -27 -171 -120 -274 -247 -274 -168 0 -279
190 -247 420 29 206 156 314 315 269z"/>
<path d="M6060 1476 c-149 -43 -268 -160 -321 -316 -27 -78 -38 -275 -20 -361
28 -133 96 -242 191 -307 82 -58 132 -74 241 -80 80 -4 109 -1 167 17 146 44
255 151 310 304 24 65 26 86 27 222 0 132 -3 158 -23 215 -47 132 -123 219
-239 277 -69 34 -81 37 -181 39 -67 2 -124 -1 -152 -10z m257 -132 c103 -50
175 -171 191 -319 27 -253 -82 -457 -264 -495 -266 -55 -461 252 -368 580 64
224 255 325 441 234z"/>
<path d="M1310 1473 c-19 -2 -45 -6 -57 -8 l-23 -5 0 -515 0 -515 120 0 120 0
0 185 0 185 83 0 c266 1 427 132 427 351 0 168 -103 285 -280 319 -49 9 -310
11 -390 3z m335 -191 c63 -22 95 -65 95 -131 0 -62 -26 -111 -75 -138 -44 -24
-130 -39 -170 -29 l-25 6 0 149 c0 168 -5 158 80 159 25 1 67 -7 95 -16z"/>
<path d="M3615 1470 c-111 -23 -244 -95 -306 -168 -109 -127 -153 -322 -115
-503 38 -175 150 -301 324 -361 58 -20 86 -23 217 -23 116 0 163 4 208 18 46
14 57 22 53 35 -2 9 -10 51 -17 92 -7 41 -13 76 -14 78 -1 1 -33 -5 -71 -14
-93 -21 -211 -15 -281 15 -69 30 -135 101 -159 172 -27 78 -24 205 6 283 29
75 91 138 166 165 68 26 196 28 273 5 30 -8 57 -12 61 -7 13 14 51 186 43 193
-26 24 -298 38 -388 20z"/>
<path d="M4412 1353 c-165 -484 -312 -915 -312 -919 0 -2 33 -4 73 -4 l72 1
53 164 53 165 182 0 183 0 54 -165 54 -165 73 0 c40 0 73 4 73 9 0 4 -50 154
-111 332 -61 178 -139 407 -173 509 l-63 185 -85 3 -85 3 -41 -118z m213 -307
c30 -87 55 -162 55 -167 0 -5 -67 -9 -149 -9 l-149 0 63 193 c35 105 69 212
76 237 l11 45 19 -71 c10 -38 43 -141 74 -228z"/>
<path d="M4932 1413 l3 -58 158 -3 157 -3 0 -459 0 -460 70 0 70 0 0 460 0
460 160 0 160 0 0 60 0 60 -390 0 -391 0 3 -57z"/>
<path d="M6870 1467 c0 -2 -16 -226 -35 -498 -19 -272 -35 -504 -35 -516 0
-21 4 -23 64 -23 l64 0 6 58 c5 50 19 293 42 707 l6 119 25 -94 c22 -87 169
-532 234 -710 l27 -75 53 0 53 0 88 240 c49 132 120 332 158 445 l70 205 0
-90 c0 -88 23 -561 36 -722 l6 -83 69 0 70 0 -6 48 c-3 26 -16 241 -30 477
-14 237 -28 449 -31 473 l-5 42 -88 0 -87 0 -113 -307 c-62 -170 -127 -356
-144 -415 -29 -97 -47 -133 -47 -94 0 33 -131 429 -251 759 l-21 57 -89 0
c-49 0 -89 -1 -89 -3z"/>
</g>
</svg>
